<mxfile host="65bd71144e">
    <diagram id="wMjYIVERofUrX_MT8ovd" name="Page-1">
        <mxGraphModel dx="675" dy="469" grid="1" gridSize="10" guides="1" tooltips="1" connect="1" arrows="1" fold="1" page="1" pageScale="1" pageWidth="850" pageHeight="1100" math="0" shadow="0">
            <root>
                <mxCell id="0"/>
                <mxCell id="1" parent="0"/>
                <mxCell id="2" value="" style="rounded=0;whiteSpace=wrap;html=1;fillColor=#1ba1e2;fontColor=#ffffff;strokeColor=#006EAF;" vertex="1" parent="1">
                    <mxGeometry x="40" y="40" width="760" height="1020" as="geometry"/>
                </mxCell>
                <mxCell id="3" value="&lt;font style=&quot;font-size: 25px;&quot;&gt;ul&lt;/font&gt;" style="ellipse;shape=cloud;whiteSpace=wrap;html=1;fillColor=#6a00ff;fontColor=#ffffff;strokeColor=#3700CC;" vertex="1" parent="1">
                    <mxGeometry y="10" width="120" height="80" as="geometry"/>
                </mxCell>
                <mxCell id="4" value="" style="rounded=0;whiteSpace=wrap;html=1;fontSize=25;fillColor=#a0522d;fontColor=#ffffff;strokeColor=#6D1F00;" vertex="1" parent="1">
                    <mxGeometry x="80" y="70" width="680" height="960" as="geometry"/>
                </mxCell>
                <mxCell id="5" value="li" style="ellipse;shape=cloud;whiteSpace=wrap;html=1;fontSize=25;fillColor=#a20025;fontColor=#ffffff;strokeColor=#6F0000;" vertex="1" parent="1">
                    <mxGeometry x="50" y="50" width="120" height="80" as="geometry"/>
                </mxCell>
                <mxCell id="6" value="Menu" style="rounded=0;whiteSpace=wrap;html=1;fontSize=25;fillColor=#647687;fontColor=#ffffff;strokeColor=#314354;" vertex="1" parent="1">
                    <mxGeometry x="130" y="110" width="600" height="140" as="geometry"/>
                </mxCell>
                <mxCell id="7" value="a" style="ellipse;shape=cloud;whiteSpace=wrap;html=1;fontSize=25;fillColor=#6d8764;fontColor=#ffffff;strokeColor=#3A5431;" vertex="1" parent="1">
                    <mxGeometry x="100" y="90" width="120" height="80" as="geometry"/>
                </mxCell>
                <mxCell id="8" value="" style="rounded=0;whiteSpace=wrap;html=1;fontSize=25;fillColor=#647687;fontColor=#ffffff;strokeColor=#314354;" vertex="1" parent="1">
                    <mxGeometry x="130" y="270" width="600" height="740" as="geometry"/>
                </mxCell>
                <mxCell id="9" value="ul" style="ellipse;shape=cloud;whiteSpace=wrap;html=1;fontSize=25;fillColor=#6d8764;fontColor=#ffffff;strokeColor=#3A5431;" vertex="1" parent="1">
                    <mxGeometry x="100" y="250" width="120" height="80" as="geometry"/>
                </mxCell>
                <mxCell id="10" value="" style="rounded=0;whiteSpace=wrap;html=1;fontSize=25;fillColor=#6a00ff;fontColor=#ffffff;strokeColor=#3700CC;" vertex="1" parent="1">
                    <mxGeometry x="180" y="310" width="540" height="160" as="geometry"/>
                </mxCell>
                <mxCell id="11" value="li" style="ellipse;shape=cloud;whiteSpace=wrap;html=1;fontSize=25;fillColor=#008a00;fontColor=#ffffff;strokeColor=#005700;" vertex="1" parent="1">
                    <mxGeometry x="150" y="290" width="120" height="80" as="geometry"/>
                </mxCell>
                <mxCell id="12" value="Google" style="rounded=0;whiteSpace=wrap;html=1;fontSize=25;fillColor=#76608a;fontColor=#ffffff;strokeColor=#432D57;" vertex="1" parent="1">
                    <mxGeometry x="230" y="340" width="460" height="100" as="geometry"/>
                </mxCell>
                <mxCell id="13" value="a" style="ellipse;shape=cloud;whiteSpace=wrap;html=1;fontSize=25;fillColor=#a0522d;fontColor=#ffffff;strokeColor=#6D1F00;" vertex="1" parent="1">
                    <mxGeometry x="200" y="330" width="120" height="80" as="geometry"/>
                </mxCell>
                <mxCell id="14" value="" style="rounded=0;whiteSpace=wrap;html=1;fontSize=25;fillColor=#6a00ff;fontColor=#ffffff;strokeColor=#3700CC;" vertex="1" parent="1">
                    <mxGeometry x="180" y="490" width="540" height="160" as="geometry"/>
                </mxCell>
                <mxCell id="15" value="li" style="ellipse;shape=cloud;whiteSpace=wrap;html=1;fontSize=25;fillColor=#008a00;fontColor=#ffffff;strokeColor=#005700;" vertex="1" parent="1">
                    <mxGeometry x="150" y="470" width="120" height="80" as="geometry"/>
                </mxCell>
                <mxCell id="16" value="W3School" style="rounded=0;whiteSpace=wrap;html=1;fontSize=25;fillColor=#76608a;fontColor=#ffffff;strokeColor=#432D57;" vertex="1" parent="1">
                    <mxGeometry x="230" y="520" width="460" height="100" as="geometry"/>
                </mxCell>
                <mxCell id="17" value="a" style="ellipse;shape=cloud;whiteSpace=wrap;html=1;fontSize=25;fillColor=#a0522d;fontColor=#ffffff;strokeColor=#6D1F00;" vertex="1" parent="1">
                    <mxGeometry x="200" y="510" width="120" height="80" as="geometry"/>
                </mxCell>
                <mxCell id="18" value="" style="rounded=0;whiteSpace=wrap;html=1;fontSize=25;fillColor=#6a00ff;fontColor=#ffffff;strokeColor=#3700CC;" vertex="1" parent="1">
                    <mxGeometry x="180" y="670" width="540" height="160" as="geometry"/>
                </mxCell>
                <mxCell id="19" value="li" style="ellipse;shape=cloud;whiteSpace=wrap;html=1;fontSize=25;fillColor=#008a00;fontColor=#ffffff;strokeColor=#005700;" vertex="1" parent="1">
                    <mxGeometry x="150" y="650" width="120" height="80" as="geometry"/>
                </mxCell>
                <mxCell id="20" value="Items" style="rounded=0;whiteSpace=wrap;html=1;fontSize=25;fillColor=#76608a;fontColor=#ffffff;strokeColor=#432D57;" vertex="1" parent="1">
                    <mxGeometry x="230" y="700" width="460" height="100" as="geometry"/>
                </mxCell>
                <mxCell id="21" value="a" style="ellipse;shape=cloud;whiteSpace=wrap;html=1;fontSize=25;fillColor=#a0522d;fontColor=#ffffff;strokeColor=#6D1F00;" vertex="1" parent="1">
                    <mxGeometry x="200" y="690" width="120" height="80" as="geometry"/>
                </mxCell>
                <mxCell id="23" value="" style="rounded=0;whiteSpace=wrap;html=1;fontSize=25;fillColor=#6a00ff;fontColor=#ffffff;strokeColor=#3700CC;" vertex="1" parent="1">
                    <mxGeometry x="175" y="850" width="540" height="160" as="geometry"/>
                </mxCell>
                <mxCell id="24" value="li" style="ellipse;shape=cloud;whiteSpace=wrap;html=1;fontSize=25;fillColor=#008a00;fontColor=#ffffff;strokeColor=#005700;" vertex="1" parent="1">
                    <mxGeometry x="145" y="830" width="120" height="80" as="geometry"/>
                </mxCell>
                <mxCell id="25" value="home" style="rounded=0;whiteSpace=wrap;html=1;fontSize=25;fillColor=#76608a;fontColor=#ffffff;strokeColor=#432D57;" vertex="1" parent="1">
                    <mxGeometry x="225" y="880" width="460" height="100" as="geometry"/>
                </mxCell>
                <mxCell id="26" value="a" style="ellipse;shape=cloud;whiteSpace=wrap;html=1;fontSize=25;fillColor=#a0522d;fontColor=#ffffff;strokeColor=#6D1F00;" vertex="1" parent="1">
                    <mxGeometry x="195" y="870" width="120" height="80" as="geometry"/>
                </mxCell>
            </root>
        </mxGraphModel>
    </diagram>
</mxfile>